<svg width="5" height="8" viewBox="0 0 5 8" fill="none" xmlns="http://www.w3.org/2000/svg">
<path fill-rule="evenodd" clip-rule="evenodd" d="M0.103747 6.89861C-0.102897 7.24301 0.00878149 7.68973 0.353189 7.89637C0.697597 8.10302 1.14431 7.99134 1.35096 7.64693C1.57521 7.27318 1.98886 6.6636 2.48178 6.08281C2.98837 5.48589 3.51638 4.99444 3.96155 4.77185C4.25475 4.62525 4.40565 4.30731 4.35357 4.00006C4.40565 3.69281 4.25475 3.37488 3.96155 3.22828C3.51638 3.00569 2.98837 2.51424 2.48178 1.91732C1.98886 1.33653 1.57521 0.726952 1.35096 0.353197C1.14431 0.00878901 0.697596 -0.10289 0.353189 0.103755C0.00878116 0.310399 -0.102898 0.757115 0.103747 1.10152C0.364322 1.53581 0.823359 2.21103 1.37283 2.85847C1.70473 3.24955 2.09353 3.65939 2.51215 4.00006C2.09353 4.34074 1.70473 4.75058 1.37283 5.14166C0.823359 5.7891 0.364322 6.46432 0.103747 6.89861Z" fill="#4E69A5"/>
</svg>
