<svg width="80" height="80" viewBox="0 0 80 80" fill="none" xmlns="http://www.w3.org/2000/svg">
<circle cx="39.9139" cy="39.6859" r="39.4803" fill="#F8F2EB"/>
<circle cx="39.9139" cy="39.6859" r="39.0192" stroke="#C49D6C" stroke-opacity="0.67" stroke-width="0.922241"/>
<g clip-path="url(#clip0_43_1847)">
<path d="M56.096 27.8416C56.5087 27.8416 56.8433 27.507 56.8433 27.0943C56.8433 26.6815 56.5087 26.3469 56.096 26.3469C55.6832 26.3469 55.3486 26.6815 55.3486 27.0943C55.3486 27.507 55.6832 27.8416 56.096 27.8416Z" fill="#4E69A5"/>
<path d="M22.4643 45.0311C23.9844 45.139 25.4705 44.547 26.5001 43.4235C26.6596 43.7039 26.8368 43.9737 27.0307 44.2314C27.231 44.5095 27.2069 44.8903 26.9732 45.141C25.6442 46.6726 24.5526 48.3951 23.7348 50.2507C23.5609 50.1125 23.3952 49.9643 23.2386 49.8068C22.1679 48.5684 20.3014 48.419 19.0474 49.4712C17.7848 50.5349 17.6236 52.4207 18.6871 53.6833C18.9256 53.9711 24.7901 60.7257 40.4011 60.7257C56.012 60.7257 61.8766 53.9711 62.1187 53.6841C63.0666 52.5546 63.0462 50.9018 62.0706 49.7962C61.0951 48.6905 59.4577 48.4644 58.219 49.2642C57.1669 46.9169 55.704 44.7765 53.8992 42.9437C53.6929 42.7223 53.6361 42.4002 53.7542 42.1216C54.8753 39.1322 54.3663 35.0523 54.0367 33.1719C54.6493 33.3458 55.2061 33.676 55.6525 34.1301C56.3518 34.8702 57.3197 35.2974 58.3378 35.3154C60.0425 35.3154 62.0746 34.5374 62.0746 30.8312C62.0746 29.3918 59.6472 25.2738 58.5239 23.4442C59.2873 22.5912 59.7474 21.5097 59.8325 20.3681C59.8325 19.9553 59.4979 19.6207 59.0852 19.6207C57.8106 19.6144 56.5459 19.8442 55.3551 20.2986C54.4082 19.8853 53.3915 19.6553 52.3589 19.6207C44.6371 19.6207 42.5744 28.054 42.0453 31.6832C41.9953 32.053 41.6785 32.3282 41.3054 32.3259H31.4327C30.797 32.3262 30.1651 32.4253 29.5598 32.6196C28.8691 30.5547 26.88 29.2092 24.7064 29.3365C23.0948 29.2519 21.5657 30.0546 20.72 31.4291C19.741 33.1774 19.5861 35.2693 20.297 37.1427C20.7925 38.0777 20.9051 39.1687 20.6109 40.1852C20.1933 41.1013 19.4049 41.7959 18.4435 42.0947C18.2494 42.1723 18.0967 42.3277 18.0224 42.5231C17.9481 42.7185 17.9591 42.9361 18.0526 43.1231C18.1565 43.3181 19.1102 45.0311 22.4643 45.0311ZM60.8041 50.6363C61.1042 50.8891 61.2913 51.2509 61.3241 51.6418C61.3569 52.0328 61.2328 52.4208 60.979 52.72C60.7511 52.9868 55.3237 59.231 40.4011 59.231C25.4784 59.231 20.0511 52.9868 19.8269 52.7207C19.4528 52.277 19.3694 51.6568 19.6131 51.13C19.8567 50.6032 20.3832 50.265 20.9636 50.2626C21.407 50.2634 21.828 50.4577 22.1161 50.7948C22.3186 51.0197 27.2265 56.2416 40.4011 56.2416C53.6653 56.2416 58.494 51.01 58.6958 50.7858C59.2401 50.1691 60.1783 50.1026 60.8041 50.6363ZM42.1006 46.4571C44.2355 45.9472 46.4279 45.7191 48.6221 45.7785C49.0178 45.78 49.4129 45.745 49.8022 45.6738C50.0389 45.6211 50.2865 45.6856 50.4673 45.8472C52.2148 47.5585 53.578 49.6221 54.4665 51.9009C51.8073 53.2476 47.3037 54.7468 40.4011 54.7468C34.5141 54.7468 30.3707 53.6564 27.6309 52.5003C28.4138 50.5316 29.6063 48.7519 31.1293 47.2792C31.2944 47.1217 31.5253 47.0532 31.7496 47.0953C32.3844 47.2145 33.0289 47.274 33.6748 47.2732C36.5069 47.3683 39.3393 47.0939 42.1006 46.4571ZM58.3378 33.8206C57.8228 33.8235 57.3266 33.6272 56.9529 33.2728L60.3116 29.9149C60.4482 30.2045 60.5387 30.5137 60.5799 30.8312C60.5799 33.4589 59.5022 33.8206 58.3378 33.8206ZM56.9567 23.7537C57.9283 25.3022 58.9342 27.069 59.6412 28.471L55.7781 32.3341C54.9869 31.8124 54.0535 31.5484 53.1063 31.5786C52.878 31.5785 52.6623 31.6827 52.5205 31.8615C52.3786 32.0403 52.3263 32.2741 52.3783 32.4963C52.391 32.5516 53.6623 38.1015 52.3544 41.6007C52.0308 42.4299 52.2242 43.3719 52.8484 44.0065C54.622 45.8184 56.0415 47.9458 57.0337 50.2791C56.6334 50.5986 56.2141 50.8936 55.7781 51.1625C54.8093 48.7483 53.3457 46.5637 51.4815 44.7493C50.9528 44.2632 50.222 44.062 49.5189 44.209C49.2229 44.2611 48.9227 44.2861 48.6221 44.2837C46.3182 44.2221 44.0162 44.4623 41.7747 44.9982C40.5849 45.2825 39.3767 45.4838 38.159 45.6006V41.2943C40.6345 41.2918 42.6407 39.2856 42.6432 36.8101V33.8206H44.1379C46.4002 33.8206 47.2133 31.3259 47.8523 28.7707C48.2028 27.3679 49.2715 24.1049 51.6115 24.1049C53.8402 24.1049 55.3835 22.3112 55.8334 21.7186C56.5777 21.4234 57.3604 21.2362 58.1577 21.1625C57.9191 21.7917 57.545 22.3607 57.0621 22.8292C56.816 23.0752 56.7723 23.4585 56.9567 23.7537ZM52.3589 21.1155C52.9505 21.1303 53.5365 21.2351 54.0965 21.4264C53.4505 22.1248 52.5609 22.5485 51.6115 22.6102C49.22 22.6102 47.3232 24.7237 46.4024 28.4075C45.5863 31.6705 44.9316 32.3259 44.1379 32.3259H43.4182C43.4674 32.1862 43.5032 32.042 43.5251 31.8954C43.9974 28.6541 45.8038 21.1155 52.3589 21.1155ZM41.1484 33.8206V36.8101C41.1484 38.4611 39.81 39.7996 38.159 39.7996H36.6642C35.0132 39.7996 33.6748 38.4611 33.6748 36.8101V33.8206H41.1484ZM32.1801 33.8206V36.8101C32.1825 39.2856 34.1887 41.2918 36.6642 41.2943V45.709C35.8182 45.7531 34.8369 45.7785 33.6748 45.7785C33.1233 45.7801 32.5728 45.7301 32.0306 45.629C31.3415 45.496 30.6303 45.7008 30.1173 46.1798C28.4502 47.7845 27.1411 49.7234 26.2759 51.8695C25.7759 51.6139 25.3424 51.3643 24.9725 51.1318C25.7448 49.3127 26.7971 47.6256 28.0912 46.132C28.8002 45.3448 28.8516 44.1655 28.2138 43.3196C26.6961 41.2987 26.4051 38.6097 27.4552 36.3109C28.1613 34.7579 29.7273 33.7774 31.4327 33.8206H32.1801ZM22.0107 40.7181C22.462 39.3114 22.3273 37.7822 21.637 36.476C21.1541 35.0676 21.282 33.5215 21.9898 32.2116C22.572 31.2863 23.6158 30.756 24.7064 30.8312C26.3047 30.6889 27.7752 31.7121 28.1974 33.2601C27.2992 33.8541 26.5791 34.6807 26.1137 35.6517C25.2198 37.587 25.1024 39.7914 25.7856 41.8107C25.2191 42.9512 24.1085 43.5364 22.4643 43.5364C21.6114 43.5782 20.7628 43.3906 20.007 42.993C20.9174 42.4886 21.6253 41.6849 22.0107 40.7181Z" fill="#4E69A5"/>
</g>
<defs>
<clipPath id="clip0_43_1847">
<rect width="44.8418" height="44.8418" fill="white" transform="translate(17.9795 17.7524)"/>
</clipPath>
</defs>
</svg>
