<svg width="16" height="16" viewBox="0 0 16 16" fill="none" xmlns="http://www.w3.org/2000/svg">
<path d="M7.99935 0.666748C6.54895 0.666748 5.13113 1.09684 3.92517 1.90264C2.71921 2.70844 1.77928 3.85375 1.22424 5.19374C0.669193 6.53373 0.523969 8.00822 0.806927 9.43075C1.08989 10.8533 1.78832 12.16 2.8139 13.1855C3.83949 14.2111 5.14616 14.9096 6.56869 15.1925C7.99122 15.4755 9.4657 15.3303 10.8057 14.7752C12.1457 14.2202 13.291 13.2802 14.0968 12.0743C14.9026 10.8683 15.3327 9.45049 15.3327 8.00009C15.3304 6.05587 14.557 4.19194 13.1823 2.81717C11.8075 1.4424 9.94357 0.669042 7.99935 0.666748ZM7.99935 14.0001C6.81266 14.0001 5.65263 13.6482 4.66593 12.9889C3.67924 12.3296 2.9102 11.3925 2.45607 10.2962C2.00195 9.19983 1.88313 7.99343 2.11464 6.82955C2.34615 5.66566 2.9176 4.59656 3.75671 3.75744C4.59583 2.91833 5.66492 2.34688 6.82881 2.11537C7.9927 1.88386 9.19909 2.00268 10.2955 2.45681C11.3918 2.91093 12.3289 3.67997 12.9882 4.66666C13.6475 5.65336 13.9994 6.8134 13.9994 8.00009C13.9974 9.59079 13.3646 11.1158 12.2398 12.2406C11.1151 13.3654 9.59005 13.9982 7.99935 14.0001Z" fill="#E3C194"/>
<path d="M8.66732 7.72391V3.99992C8.66732 3.82311 8.59709 3.65354 8.47206 3.52851C8.34704 3.40349 8.17747 3.33325 8.00065 3.33325C7.82384 3.33325 7.65427 3.40349 7.52925 3.52851C7.40422 3.65354 7.33398 3.82311 7.33398 3.99992V7.99991C7.33402 8.17671 7.40429 8.34625 7.52932 8.47125L9.52933 10.4712C9.65506 10.5927 9.82346 10.6599 9.99826 10.6584C10.1731 10.6568 10.3403 10.5867 10.4639 10.4631C10.5875 10.3395 10.6576 10.1723 10.6591 9.99751C10.6606 9.82272 10.5934 9.65431 10.472 9.52858L8.66732 7.72391Z" fill="#E3C194"/>
</svg>
