<svg width="10" height="9" viewBox="0 0 10 9" fill="none" xmlns="http://www.w3.org/2000/svg">
<path opacity="0.5" d="M5.00001 8.71887C4.95852 8.66957 4.91844 8.62328 4.87976 8.57939C4.30619 7.9477 3.62038 7.47292 2.95723 7.01358L2.93318 6.99715C2.24998 6.52779 1.54393 6.04299 0.987994 5.40028C0.00999249 4.26976 -0.270181 2.77991 0.274534 1.60431C0.64369 0.789837 1.43371 0.213658 2.28866 0.133293C2.36421 0.126279 2.44057 0.122671 2.51733 0.122671C3.2863 0.122671 4.36145 0.915061 4.71542 1.81656L5.00021 2.10455L5.28519 1.81636C5.55094 0.915061 6.71331 0.12207 7.48048 0.12207C7.55844 0.12207 7.6356 0.125878 7.71256 0.133093C8.56751 0.213257 9.35753 0.791441 9.72588 1.60631C10.2702 2.78312 9.98942 4.27097 9.01222 5.40008C8.45588 6.0432 7.74943 6.52819 7.06624 6.99735L7.04219 7.01398C6.37943 7.47312 5.69343 7.9483 5.12627 8.57257C5.0936 8.60825 5.06213 8.64532 5.02907 8.6846L5.00001 8.71887Z" fill="white"/>
</svg>
