<svg width="80" height="80" viewBox="0 0 80 80" fill="none" xmlns="http://www.w3.org/2000/svg">
<circle cx="40.3963" cy="39.7786" r="39.4803" fill="#F8F2EB"/>
<circle cx="40.3963" cy="39.7786" r="39.0192" stroke="#C49D6C" stroke-opacity="0.67" stroke-width="0.922241"/>
<g clip-path="url(#clip0_43_1842)">
<path d="M40.3942 26.017C40.7903 26.017 41.1205 25.7357 41.1964 25.3621H45.1896L45.8981 26.0706C46.377 26.5494 47.0059 26.7887 47.6349 26.7887C48.2638 26.7887 48.8929 26.5493 49.3716 26.0706C50.3293 25.1129 50.3292 23.5548 49.3716 22.5971L48.0566 21.2821C47.5199 20.7454 46.8062 20.4499 46.0472 20.4499H41.1964C41.1205 20.0762 40.7903 19.7949 40.3942 19.7949H28.6049C28.1528 19.7949 27.7862 20.1615 27.7862 20.6136V25.1983C27.7862 25.6504 28.1528 26.017 28.6049 26.017H31.716V28.3094H30.8154C29.1451 28.3094 27.7862 29.6683 27.7862 31.3386V32.9201C24.4883 33.2063 21.8916 35.9806 21.8916 39.3514V57.825C21.8916 59.9685 23.6354 61.7123 25.7789 61.7123H43.2202C45.3637 61.7123 47.1075 59.9685 47.1075 57.825V50.9873C47.1075 50.5353 46.741 50.1686 46.2888 50.1686C45.8367 50.1686 45.4701 50.5353 45.4701 50.9873V57.825C45.4701 59.0656 44.4608 60.0749 43.2202 60.0749H25.7789C24.5383 60.0749 23.529 59.0656 23.529 57.825V39.3514C23.529 36.6937 25.6912 34.5315 28.3489 34.5315H40.6503C43.3079 34.5315 45.4701 36.6937 45.4701 39.3514V43.619C45.4701 44.0711 45.8367 44.4377 46.2888 44.4377C46.741 44.4377 47.1075 44.0711 47.1075 43.619V39.3514C47.1075 35.9806 44.5108 33.2063 41.2129 32.9201V31.3386C41.2129 29.6683 39.854 28.3094 38.1837 28.3094H37.2831V26.017H40.3942ZM46.8988 22.4401L48.2137 23.755C48.533 24.0742 48.533 24.5936 48.2137 24.9129C47.8946 25.2321 47.3751 25.2321 47.0559 24.9129L46.1076 23.9646C45.9541 23.811 45.7459 23.7248 45.5287 23.7248H41.2129V22.0873H46.0472C46.3689 22.0873 46.6713 22.2125 46.8988 22.4401ZM29.4236 21.4323H39.5755V24.3796H29.4236V21.4323ZM39.5755 31.3386V32.8941H29.4236V31.3386C29.4236 30.5711 30.048 29.9468 30.8154 29.9468H38.1837C38.9512 29.9468 39.5755 30.5711 39.5755 31.3386ZM35.6457 28.3094H33.3534V26.017H35.6457V28.3094Z" fill="#D6B082"/>
<path d="M28.1957 40.1807C27.7435 40.1807 27.377 40.5473 27.377 40.9994V53.6073C27.377 54.0594 27.7435 54.426 28.1957 54.426H40.8036C41.2558 54.426 41.6223 54.0594 41.6223 53.6073V40.9994C41.6223 40.5473 41.2558 40.1807 40.8036 40.1807H28.1957ZM39.9849 52.7886H29.0143V41.8181H39.9849V52.7886Z" fill="#D6B082"/>
<path d="M51.5652 30.9292C49.8497 30.9292 48.4541 32.3248 48.4541 34.0403C48.4541 35.7557 49.8497 37.1513 51.5652 37.1513C53.2806 37.1513 54.6762 35.7557 54.6762 34.0403C54.6762 32.3248 53.2806 30.9292 51.5652 30.9292ZM51.5652 35.5139C50.7526 35.5139 50.0915 34.8528 50.0915 34.0403C50.0915 33.2277 50.7526 32.5666 51.5652 32.5666C52.3777 32.5666 53.0388 33.2277 53.0388 34.0403C53.0388 34.8528 52.3777 35.5139 51.5652 35.5139Z" fill="#D6B082"/>
<path d="M56.1127 24.0522C54.5778 24.0522 53.3291 25.3009 53.3291 26.8358C53.3291 28.3707 54.5778 29.6194 56.1127 29.6194C57.6476 29.6194 58.8963 28.3707 58.8963 26.8358C58.8963 25.3009 57.6476 24.0522 56.1127 24.0522ZM56.1127 27.982C55.4806 27.982 54.9665 27.4679 54.9665 26.8358C54.9665 26.2038 55.4806 25.6896 56.1127 25.6896C56.7447 25.6896 57.2589 26.2038 57.2589 26.8358C57.2589 27.4679 56.7447 27.982 56.1127 27.982Z" fill="#D6B082"/>
<path d="M46.2884 46.4844C46.0731 46.4844 45.8619 46.5719 45.7096 46.7243C45.5573 46.8765 45.4697 47.0878 45.4697 47.3031C45.4697 47.5184 45.5573 47.7296 45.7096 47.8818C45.8619 48.0341 46.0731 48.1218 46.2884 48.1218C46.5037 48.1218 46.715 48.0342 46.8672 47.8818C47.0195 47.7296 47.1071 47.5184 47.1071 47.3031C47.1071 47.0878 47.0195 46.8765 46.8672 46.7243C46.715 46.572 46.5037 46.4844 46.2884 46.4844Z" fill="#D6B082"/>
</g>
<defs>
<clipPath id="clip0_43_1842">
<rect width="41.9174" height="41.9174" fill="white" transform="translate(19.4365 19.7952)"/>
</clipPath>
</defs>
</svg>
