<svg width="80" height="80" viewBox="0 0 80 80" fill="none" xmlns="http://www.w3.org/2000/svg">
<circle cx="40.4325" cy="39.7786" r="39.4803" fill="#F8F2EB"/>
<circle cx="40.4325" cy="39.7786" r="39.0192" stroke="#C49D6C" stroke-opacity="0.67" stroke-width="0.922241"/>
<g clip-path="url(#clip0_43_1844)">
<path d="M59.1017 19.831C58.7735 19.5031 58.2416 19.5028 57.9134 19.831L49.2013 28.5428C48.873 28.871 48.873 29.4029 49.2012 29.7311C49.3653 29.8952 49.5803 29.9772 49.7954 29.9772C50.0104 29.9772 50.2255 29.8952 50.3896 29.7311L59.1017 21.0193C59.4298 20.6911 59.4298 20.1591 59.1017 19.831Z" fill="#D6B082"/>
<path d="M61.4706 22.1627C61.1423 21.8347 60.6105 21.8347 60.2823 22.1627L51.5703 30.8747C51.2422 31.203 51.2422 31.7349 51.5702 32.0631C51.7343 32.2271 51.9495 32.3091 52.1644 32.3091C52.3794 32.3091 52.5945 32.2271 52.7586 32.0631L61.4706 23.351C61.7988 23.0228 61.7988 22.4908 61.4706 22.1627Z" fill="#D6B082"/>
<path d="M53.253 36.8745L64.0679 26.0596C64.3961 25.7313 64.3961 25.1995 64.0679 24.8713C63.7396 24.5434 63.2077 24.5431 62.8795 24.8713L52.0649 35.6861C50.7325 37.0184 48.6952 37.368 46.9955 36.5563C46.6573 36.3949 46.2536 36.4765 46.0049 36.7567L42.3302 40.8969C42.3288 40.8985 42.3271 40.8998 42.3256 40.9015C42.3242 40.9031 42.3231 40.9049 42.3216 40.9065L26.4391 58.8003C26.4351 58.8049 26.4311 58.8096 26.4271 58.8142C26.3748 58.8757 26.3253 58.9297 26.2752 58.9799C25.2266 60.0285 23.5203 60.0284 22.4721 58.9799C21.9641 58.472 21.6844 57.7966 21.6844 57.0783C21.6844 56.3599 21.9641 55.6846 22.473 55.1757C22.5218 55.1266 22.5757 55.0774 22.6378 55.0246C22.6425 55.0206 22.6471 55.0166 22.6516 55.0126L32.581 46.1995C32.928 45.8914 32.9596 45.3604 32.6516 45.0134C32.3435 44.6662 31.8124 44.6345 31.4654 44.9427L21.5427 53.7499C21.4479 53.8308 21.363 53.9091 21.2838 53.9884C20.4585 54.8137 20.0039 55.911 20.0039 57.0783C20.0039 58.2454 20.4584 59.3428 21.2837 60.1682C22.1358 61.02 23.2546 61.446 24.3738 61.4459C25.4925 61.4459 26.6117 61.0201 27.463 60.1686C27.5437 60.0881 27.6219 60.0031 27.7021 59.9091L39.805 46.2733L51.9081 59.9093C51.9883 60.0034 52.0664 60.0884 52.1466 60.1683C52.9984 61.0202 54.1174 61.4461 55.2364 61.4461C56.3554 61.4461 57.4745 61.0201 58.3264 60.1682C60.0299 58.4645 60.0299 55.6924 58.3269 53.9891C58.2465 53.9084 58.1614 53.8303 58.0675 53.7501L44.1406 41.3888L46.8653 38.3188C49.073 39.101 51.5711 38.5561 53.253 36.8745ZM56.9584 55.0127C56.963 55.0167 56.9676 55.0207 56.9723 55.0246C57.0338 55.077 57.0878 55.1265 57.138 55.1765C58.1865 56.2251 58.1865 57.9313 57.1381 58.9797C56.0894 60.0282 54.3832 60.0282 53.3343 58.9793C53.2846 58.9296 53.235 58.8755 53.1826 58.814C53.1787 58.8094 53.1747 58.8047 53.1707 58.8001L40.9284 45.0074L43.0248 42.6455L56.9584 55.0127Z" fill="#D6B082"/>
<path d="M56.5795 17.3834C56.2512 17.0555 55.7193 17.0555 55.3911 17.3834L44.5765 28.1984C42.8943 29.8803 42.3497 32.3781 43.1319 34.5863L39.8039 37.5402L36.6055 34.7012C38.2595 31.4467 37.6557 27.4951 35.0315 24.8708C32.4253 22.2646 29.4065 20.4305 26.5313 19.7066C23.5298 18.9511 20.9564 19.4554 19.2846 21.1272C17.6127 22.799 17.1082 25.3727 17.8639 28.3741C18.5879 31.2491 20.4219 34.2679 23.0283 36.874C25.6525 39.4984 29.604 40.1022 32.8588 38.448C32.8588 38.448 35.9866 41.9718 36.0262 42.0166C36.1923 42.2037 36.423 42.299 36.655 42.299C36.8534 42.299 37.0524 42.2292 37.2125 42.0872L44.6942 35.4464C44.9743 35.1978 45.0559 34.7938 44.8946 34.4559C44.0827 32.7559 44.4323 30.7188 45.7647 29.3867L56.5795 18.5718C56.9077 18.2435 56.9077 17.7116 56.5795 17.3834ZM36.7253 40.2728L33.6666 36.8269C33.3958 36.5217 32.9445 36.455 32.5972 36.6695C29.9032 38.3307 26.4569 37.9265 24.2164 35.6859C21.8216 33.2912 20.1444 30.5489 19.4934 27.9637C18.8879 25.5586 19.2358 23.5526 20.4729 22.3156C21.7099 21.0783 23.7159 20.7307 26.1209 21.3362C28.706 21.9871 31.4485 23.6643 33.8431 26.0591C36.0836 28.2995 36.4879 31.7458 34.8267 34.4398C34.6124 34.7871 34.6789 35.2382 34.984 35.5092L38.538 38.6636L36.7253 40.2728Z" fill="#D6B082"/>
</g>
<defs>
<clipPath id="clip0_43_1844">
<rect width="46.7915" height="46.7915" fill="white" transform="translate(17.5225 15.896)"/>
</clipPath>
</defs>
</svg>
