<svg width="79" height="79" viewBox="0 0 79 79" fill="none" xmlns="http://www.w3.org/2000/svg">
<circle cx="39.4803" cy="39.4803" r="39.4803" fill="#F8F2EB"/>
<circle cx="39.4803" cy="39.4803" r="39.0192" stroke="#C49D6C" stroke-opacity="0.67" stroke-width="0.922241"/>
<g clip-path="url(#clip0_50_2455)">
<path d="M39.2686 33.2354C39.4715 33.2354 39.6705 33.1529 39.814 33.0093C39.9583 32.8658 40.04 32.6668 40.04 32.4639C40.04 32.261 39.9583 32.0619 39.814 31.9185C39.6705 31.775 39.4722 31.6924 39.2686 31.6924C39.0657 31.6924 38.8666 31.7749 38.7231 31.9185C38.5796 32.0619 38.4971 32.261 38.4971 32.4639C38.4971 32.6668 38.5796 32.8658 38.7231 33.0093C38.8666 33.1528 39.0657 33.2354 39.2686 33.2354Z" fill="#4E69A5"/>
<path d="M34.4854 33.2354C34.6883 33.2354 34.8873 33.1529 35.0308 33.0093C35.1751 32.8658 35.2568 32.6668 35.2568 32.4639C35.2568 32.261 35.1751 32.0619 35.0308 31.9185C34.8873 31.775 34.689 31.6924 34.4854 31.6924C34.2825 31.6924 34.0834 31.7749 33.9399 31.9185C33.7964 32.0619 33.7139 32.261 33.7139 32.4639C33.7139 32.6668 33.7964 32.8658 33.9399 33.0093C34.0834 33.1528 34.2825 33.2354 34.4854 33.2354Z" fill="#4E69A5"/>
<path d="M55.3466 34.9075C54.9205 34.9075 54.5751 35.2529 54.5751 35.679C54.5751 36.105 54.9205 36.4504 55.3466 36.4504C56.786 36.4504 57.957 37.6215 57.957 39.0609V50.6434C57.957 52.0829 56.786 53.2539 55.3466 53.2539H37.2321C35.7927 53.2539 34.6216 52.0829 34.6216 50.6434V39.0609C34.6216 37.6215 35.7927 36.4504 37.2321 36.4504H48.3917C48.8178 36.4504 49.1632 36.105 49.1632 35.679C49.1632 35.2529 48.8178 34.9075 48.3917 34.9075H43.5776C43.6988 34.3902 43.7616 33.8593 43.7616 33.3191V30.112H44.7389C45.165 30.112 45.5104 29.7665 45.5104 29.3405V26.6759C45.5104 22.4434 42.067 19 37.8345 19C35.6509 19 33.7585 20.2666 32.8508 22.1032C30.3612 22.3041 28.3962 24.3929 28.3962 26.9334V29.1064C28.3962 29.4431 28.6146 29.7411 28.9358 29.8422C29.2453 29.9398 29.5595 30.0084 29.8749 30.0511V33.3192C29.8749 35.7003 31.0907 37.8988 33.0786 39.1702V39.6918H32.1658C25.4576 39.6918 20 45.1494 20 51.8577V53.8711C20 56.4235 22.0765 58.5 24.6289 58.5H53.2253C53.6514 58.5 53.9968 58.1545 53.9968 57.7285C53.9968 57.3025 53.6514 56.957 53.2253 56.957H52.4641C52.9982 56.3587 53.3786 55.6192 53.5438 54.7969H55.3466C57.6368 54.7969 59.5 52.9337 59.5 50.6434V39.0609C59.5 36.7708 57.6368 34.9075 55.3466 34.9075ZM43.2805 54.7969V56.957H38.7877V56.5144C38.7877 55.8845 38.6076 55.296 38.2969 54.7969H43.2805ZM37.8345 20.543C41.2162 20.543 43.9674 23.2942 43.9674 26.6759V28.569H37.8345C35.6217 28.569 33.8215 26.7688 33.8215 24.5559C33.8215 22.3432 35.6217 20.543 37.8345 20.543ZM29.9393 26.9334C29.9393 25.4258 30.9545 24.1517 32.3368 23.7565C32.299 24.0177 32.2785 24.2844 32.2785 24.556C32.2785 25.7027 32.6278 26.7694 33.2255 27.6553C32.3046 28.3896 31.1033 28.7015 29.9393 28.5014V26.9334ZM31.4179 33.3191V30.0474C32.4521 29.904 33.4397 29.4785 34.2588 28.8039C35.2259 29.6193 36.4735 30.112 37.8345 30.112H42.2187V33.3191C42.2187 33.8636 42.1386 34.3957 41.9812 34.9075H37.2321C35.4976 34.9075 34.0088 35.9766 33.388 37.4902C32.1538 36.4747 31.4179 34.9523 31.4179 33.3191ZM24.6289 56.957C22.9273 56.957 21.543 55.5727 21.543 53.8711V51.8577C21.543 46.0001 26.3084 41.2347 32.1659 41.2347H33.0787V50.6434C33.0787 51.1257 33.1621 51.5886 33.314 52.0195H27.792C27.3659 52.0195 27.0205 52.365 27.0205 52.791C27.0205 53.217 27.3659 53.5625 27.792 53.5625H33.0787V56.957H24.6289ZM34.6216 56.957V54.7969H35.5271C36.4742 54.7969 37.2447 55.5674 37.2447 56.5144V56.957H34.6216ZM44.8235 54.7969H47.7552V56.957H44.8235V54.7969ZM49.2981 56.9433V54.7969H51.9531C51.5891 55.967 50.5536 56.8274 49.2981 56.9433Z" fill="#4E69A5"/>
<path d="M46.2889 41.9783C44.7043 41.9783 43.415 43.2675 43.415 44.8521C43.415 46.4368 44.7043 47.7261 46.2889 47.7261C47.8735 47.7261 49.1628 46.4368 49.1628 44.8521C49.1628 43.2675 47.8735 41.9783 46.2889 41.9783ZM46.2889 46.1831C45.555 46.1831 44.958 45.586 44.958 44.8521C44.958 44.1182 45.5551 43.5212 46.2889 43.5212C47.0227 43.5212 47.6198 44.1182 47.6198 44.8521C47.6198 45.586 47.0227 46.1831 46.2889 46.1831Z" fill="#4E69A5"/>
<path d="M51.8633 36.4501C52.067 36.4501 52.266 36.3683 52.4095 36.2248C52.553 36.0805 52.6355 35.8823 52.6355 35.6786C52.6355 35.4757 52.553 35.2775 52.4095 35.1332C52.2652 34.9897 52.067 34.908 51.8633 34.908C51.6604 34.908 51.4613 34.9897 51.3178 35.1332C51.1743 35.2775 51.0918 35.4757 51.0918 35.6786C51.0918 35.8823 51.1743 36.0805 51.3178 36.2248C51.4613 36.3684 51.6604 36.4501 51.8633 36.4501Z" fill="#4E69A5"/>
</g>
<defs>
<clipPath id="clip0_50_2455">
<rect width="39.5" height="39.5" fill="white" transform="translate(20 19)"/>
</clipPath>
</defs>
</svg>
