<svg width="80" height="80" viewBox="0 0 80 80" fill="none" xmlns="http://www.w3.org/2000/svg">
<circle cx="40.4325" cy="39.6927" r="39.4803" fill="#F8F2EB"/>
<circle cx="40.4325" cy="39.6927" r="39.0192" stroke="#C49D6C" stroke-opacity="0.67" stroke-width="0.922241"/>
<g clip-path="url(#clip0_43_1846)">
<path d="M59.0297 34.2548L55.3159 35.4657V34.8202C55.3146 34.5852 55.2522 34.3547 55.1352 34.1527C55.2522 33.9507 55.3146 33.7202 55.3159 33.4852V29.4801C55.3159 28.7428 54.7339 28.1451 54.016 28.1451H44.9166C44.6878 28.1464 44.4634 28.2104 44.2667 28.3306C44.0699 28.2104 43.8456 28.1464 43.6167 28.1451H39.717V24.14C39.7171 23.4027 39.1351 22.8049 38.4171 22.8049H29.3178C29.089 22.8063 28.8646 22.8703 28.6678 22.9905C28.4712 22.8703 28.2468 22.8063 28.0179 22.8049H24.1182C23.4003 22.8049 22.8184 23.4027 22.8184 24.14V28.1451C22.8197 28.3801 22.882 28.6105 22.999 28.8126C22.882 29.0146 22.8197 29.2451 22.8184 29.4801V33.4852C22.8197 33.7202 22.882 33.9507 22.999 34.1527C22.882 34.3547 22.8197 34.5852 22.8184 34.8202V38.8254C22.8197 39.0604 22.882 39.2908 22.999 39.4929C22.882 39.6949 22.8197 39.9254 22.8184 40.1604V44.1655C22.8184 44.9029 23.4004 45.5006 24.1183 45.5006H33.2176C33.4465 45.4993 33.6708 45.4352 33.8676 45.3151C34.0643 45.4352 34.2887 45.4993 34.5175 45.5006H41.3193C41.9994 46.9407 42.8306 48.3003 43.7982 49.5551L42.4333 50.9569C41.962 50.7845 41.4363 50.9053 41.0814 51.2673L34.5168 58.0091C33.5019 59.0517 33.5019 60.7419 34.5168 61.7846L34.9113 62.1898C35.9265 63.2321 37.5722 63.2321 38.5875 62.1898L45.1519 55.4478C45.5044 55.0833 45.622 54.5434 45.4542 54.0594L46.8191 52.6576C48.8198 54.2718 51.076 55.5204 53.4888 56.349C54.0298 56.5293 54.6185 56.4801 55.124 56.2126C55.6296 55.9449 56.0101 55.481 56.1809 54.9239L61.7185 37.0111C61.9546 36.2294 61.7493 35.3777 61.1853 34.7995C60.6213 34.2212 59.7917 34.0118 59.031 34.2556L59.0297 34.2548ZM50.1162 37.1612V34.8202H54.016V35.8883L50.1162 37.1612ZM34.5175 38.8254H29.3179V34.8202H38.4172V38.8254H34.5175ZM24.1182 34.8202H28.0179V38.8254H24.1182V34.8202ZM24.1182 29.4801H33.2175V33.4852H24.1182V29.4801ZM45.0115 38.8254H39.7508C39.7391 38.8254 39.7293 38.8187 39.717 38.8187V34.8202H48.8164V37.5851L45.0115 38.8254ZM54.016 29.4801V33.4852H44.9166V29.4801H54.016ZM43.6167 29.4801V33.4852H34.5175V29.4801H43.6167ZM38.4171 24.14V28.1451H29.3178V24.14H38.4171ZM24.1182 24.14H28.0179V28.1451H24.1182V24.14ZM24.1182 44.1655V40.1604H33.2175V44.1655H24.1182ZM34.5175 44.1655V40.1604H41.1327C40.281 40.6807 39.8951 41.7385 40.2039 42.7056C40.3339 43.1061 40.5068 43.6021 40.7317 44.1654H34.5175V44.1655ZM49.4176 45.6721C49.6714 45.4115 50.0828 45.4115 50.3366 45.6721L50.5965 45.9391C50.8502 46.1998 50.8502 46.6223 50.5965 46.883L44.6222 53.0194L43.4399 51.8052L49.4176 45.6721ZM37.6651 61.2485C37.1509 61.753 36.3413 61.753 35.8271 61.2485L35.4326 60.8433C34.9251 60.322 34.9251 59.4769 35.4326 58.9556L41.9971 52.2137L44.229 54.506L37.6651 61.2485ZM60.4784 36.6098L54.9402 54.5206C54.8731 54.7405 54.7224 54.9233 54.5223 55.0273C54.3283 55.1311 54.1016 55.1501 53.8938 55.08C51.6738 54.3184 49.5943 53.1787 47.7426 51.7084L51.5182 47.8307C52.2794 47.0487 52.2794 45.7811 51.5182 44.9991L51.2582 44.7321C50.4968 43.9503 49.2625 43.9503 48.5011 44.7321L44.7216 48.6057C43.2898 46.7039 42.1796 44.5683 41.4374 42.2883C41.3687 42.0749 41.3872 41.842 41.4888 41.6428C41.5904 41.4368 41.7688 41.2818 41.9833 41.2129L54.9095 36.9989H54.92L59.4183 35.5304C59.7166 35.4363 60.0413 35.5188 60.2625 35.745C60.4837 35.9712 60.5654 36.3042 60.4751 36.6111L60.4784 36.6098Z" fill="#D6B082"/>
</g>
<defs>
<clipPath id="clip0_43_1846">
<rect width="39.1096" height="40.1666" fill="white" transform="translate(22.7627 22.8042)"/>
</clipPath>
</defs>
</svg>
