<svg width="80" height="80" viewBox="0 0 80 80" fill="none" xmlns="http://www.w3.org/2000/svg">
<circle cx="39.9139" cy="39.6351" r="39.4803" fill="#F8F2EB"/>
<circle cx="39.9139" cy="39.6351" r="39.0192" stroke="#C49D6C" stroke-opacity="0.67" stroke-width="0.922241"/>
<g opacity="0.8" clip-path="url(#clip0_43_1843)">
<path d="M64.5358 30.7031L56.5172 22.6845C56.4018 22.5694 56.2542 22.4922 56.0938 22.4631L47.2733 20.8594C46.8376 20.7801 46.4201 21.0691 46.3408 21.5048C46.3322 21.5519 46.3279 21.5997 46.3279 21.6476C46.3256 21.9024 46.3027 22.1566 46.2597 22.4078L40.7148 21.0222V20.7656C42.8844 20.3228 44.2841 18.2049 43.8413 16.0354C43.3985 13.8659 41.2807 12.4661 39.1111 12.9089C37.2447 13.2899 35.9041 14.9315 35.9037 16.8365H37.5074C37.5074 15.5079 38.5844 14.4309 39.913 14.4309C41.2416 14.4309 42.3186 15.5079 42.3186 16.8365C42.3186 18.1651 41.2416 19.2421 39.913 19.2421C39.4702 19.2421 39.1111 19.6011 39.1111 20.0439V21.0214L33.5662 22.4078C33.5232 22.1566 33.5004 21.9024 33.4981 21.6476C33.4982 21.4098 33.3927 21.1843 33.2102 21.0318C33.0287 20.8773 32.7866 20.8138 32.5527 20.8594L23.7322 22.4631C23.5718 22.4922 23.4242 22.5694 23.3088 22.6845L15.2902 30.7031C14.9771 31.0162 14.9771 31.5238 15.2902 31.8369L21.7051 38.2518C22.0182 38.5649 22.5258 38.5649 22.8389 38.2518L24.6776 36.4132V41.6942H19.0645C16.8569 41.6878 15.0621 43.4724 15.0557 45.68C15.052 46.9551 15.6568 48.1554 16.6838 48.911C14.9124 50.2053 14.5256 52.6906 15.82 54.462C16.0616 54.7928 16.353 55.0842 16.6838 55.3258C14.9058 56.6343 14.5251 59.1365 15.8335 60.9145C16.5893 61.9414 17.7896 62.5462 19.0645 62.5426H47.9316C48.1443 62.5426 48.3482 62.458 48.4985 62.3076L54.9134 55.8927C55.0619 55.7417 55.1439 55.5376 55.1412 55.3258H55.1484V36.4132L56.9871 38.2518C57.3002 38.5649 57.8078 38.5649 58.1209 38.2518L64.5358 31.8369C64.8488 31.5238 64.8488 31.0161 64.5358 30.7031ZM39.913 22.4736L45.7441 23.9314C44.5355 25.9914 42.3004 27.2291 39.913 27.1605C37.5255 27.2291 35.2904 25.9914 34.0818 23.9314L39.913 22.4736ZM16.6589 45.7036C16.6589 44.375 17.7359 43.298 19.0645 43.298H36.7055C38.0341 43.298 39.1111 44.375 39.1111 45.7036C39.1111 47.0321 38.0341 48.1091 36.7055 48.1091H19.0645C17.7359 48.1091 16.6589 47.032 16.6589 45.7036ZM16.6589 52.1185C16.6589 50.7899 17.7359 49.7129 19.0645 49.7129H36.7055C38.0341 49.7129 39.1111 50.7899 39.1111 52.1185C39.1111 53.4471 38.0341 54.5241 36.7055 54.5241H19.0645C17.7359 54.5241 16.6589 53.447 16.6589 52.1185ZM36.7055 60.939H35.1018H19.0645C17.7359 60.939 16.6589 59.862 16.6589 58.5334C16.6589 57.2048 17.7359 56.1278 19.0645 56.1278H36.7055C38.0341 56.1278 39.1111 57.2048 39.1111 58.5334C39.1111 59.862 38.0341 60.939 36.7055 60.939ZM48.7335 59.8051V56.1278H52.4108L48.7335 59.8051ZM57.554 36.5511L52.5079 31.505L51.374 32.6388L53.5447 34.8094V54.5241H47.9316C47.4888 54.5241 47.1298 54.8831 47.1298 55.3259V60.939H39.8921C41.2267 59.2099 40.9071 56.7265 39.1782 55.3918C39.1492 55.3694 39.1199 55.3475 39.0903 55.3259C40.8617 54.0316 41.2485 51.5463 39.9542 49.7748C39.7125 49.444 39.4211 49.1527 39.0903 48.911C40.8684 47.6026 41.2491 45.1004 39.9405 43.3223C39.184 42.2942 37.9819 41.6893 36.7055 41.6942H26.2813V34.8094L28.4519 32.6388L27.3181 31.505L22.272 36.5511L16.9909 31.27L24.2654 23.9955L31.9633 22.5962C32.4877 26.0731 35.8523 28.7642 39.9114 28.7642C43.9704 28.7642 47.335 26.0731 47.8595 22.5962L55.5573 23.9955L62.8351 31.27L57.554 36.5511Z" fill="#4E69A5"/>
<path d="M37.5074 44.9016H18.2627V46.5053H37.5074V44.9016Z" fill="#4E69A5"/>
<path d="M36.7056 51.3169H18.2627V52.9206H36.7056V51.3169Z" fill="#4E69A5"/>
<path d="M36.7056 57.7319H18.2627V59.3357H36.7056V57.7319Z" fill="#4E69A5"/>
</g>
<defs>
<clipPath id="clip0_43_1843">
<rect width="49.7159" height="49.7159" fill="white" transform="translate(15.0557 12.8276)"/>
</clipPath>
</defs>
</svg>
