<svg width="14" height="14" viewBox="0 0 14 14" fill="none" xmlns="http://www.w3.org/2000/svg">
<path d="M11.7728 0.135742L1.42875 0.135742C0.717594 0.135742 0.135742 0.717594 0.135742 1.42875L0.135742 11.7728C0.135742 12.4839 0.717594 13.0658 1.42875 13.0658L11.7728 13.0658C12.4839 13.0658 13.0658 12.4839 13.0658 11.7728L13.0658 1.42875C13.0658 0.717594 12.4839 0.135742 11.7728 0.135742ZM6.60077 4.01476C8.02307 4.01476 9.18677 5.17846 9.18677 6.60077C9.18677 8.02307 8.02307 9.18677 6.60077 9.18677C5.17846 9.18677 4.01476 8.02307 4.01476 6.60077C4.01476 5.17846 5.17846 4.01476 6.60077 4.01476ZM1.752 11.7728C1.55805 11.7728 1.42875 11.6435 1.42875 11.4495L1.42875 5.95426H2.7864C2.72175 6.14821 2.72175 6.40681 2.72175 6.60077C2.72175 8.73422 4.46731 10.4798 6.60077 10.4798C8.73422 10.4798 10.4798 8.73422 10.4798 6.60077C10.4798 6.40681 10.4798 6.14821 10.4151 5.95426H11.7728V11.4495C11.7728 11.6435 11.6435 11.7728 11.4495 11.7728L1.752 11.7728ZM11.7728 3.045C11.7728 3.23895 11.6435 3.36825 11.4495 3.36825H10.1565C9.96258 3.36825 9.83328 3.23895 9.83328 3.045V1.752C9.83328 1.55805 9.96258 1.42875 10.1565 1.42875L11.4495 1.42875C11.6435 1.42875 11.7728 1.55805 11.7728 1.752V3.045Z" fill="#EEDECA"/>
</svg>
