<svg width="7" height="14" viewBox="0 0 7 14" fill="none" xmlns="http://www.w3.org/2000/svg">
<path fill-rule="evenodd" clip-rule="evenodd" d="M0.0832244 13.0246C-0.0825429 13.3009 0.00704443 13.6592 0.283323 13.825C0.559602 13.9907 0.917951 13.9012 1.08372 13.6249C1.51092 12.9129 2.2879 11.7685 3.21502 10.6761C4.15311 9.57075 5.19494 8.57886 6.14559 8.10354C6.42059 7.96604 6.53953 7.64064 6.42462 7.36074C6.53953 7.08085 6.42059 6.75545 6.14559 6.61795C5.19494 6.14262 4.15311 5.15073 3.21502 4.04538C2.2879 2.95296 1.51092 1.80861 1.08372 1.09661C0.917951 0.820326 0.559602 0.730739 0.283323 0.896506C0.00704441 1.06227 -0.0825429 1.42062 0.0832244 1.6969C0.539561 2.45746 1.35295 3.65448 2.32543 4.80035C3.14193 5.76243 4.10663 6.732 5.0954 7.36074C4.10663 7.98949 3.14193 8.95905 2.32543 9.92113C1.35295 11.067 0.539561 12.264 0.0832244 13.0246Z" fill="#F8F2EB"/>
</svg>
