<svg width="80" height="80" viewBox="0 0 80 80" fill="none" xmlns="http://www.w3.org/2000/svg">
<circle cx="40.3963" cy="39.6927" r="39.4803" fill="#F8F2EB"/>
<circle cx="40.3963" cy="39.6927" r="39.0192" stroke="#C49D6C" stroke-opacity="0.67" stroke-width="0.922241"/>
<g clip-path="url(#clip0_43_1848)">
<path d="M47.7104 39.0214C47.7077 39.0214 47.7051 39.0214 47.7024 39.0214H44.4369V35.7479C44.4413 35.0877 43.9097 34.5488 43.2495 34.5444C43.2468 34.5444 43.244 34.5444 43.2414 34.5444H38.5238C37.8636 34.5444 37.3283 35.0797 37.3283 35.7399V39.0134H34.0629C33.4026 39.009 32.8638 39.5405 32.8594 40.2007C32.8594 40.2061 32.8594 40.2114 32.8594 40.2169V44.9265C32.8594 45.5867 33.3946 46.122 34.0548 46.122H37.3283V49.3874C37.3239 50.0476 37.8555 50.5865 38.5158 50.5909C38.5185 50.5909 38.5212 50.5909 38.5238 50.5909H43.2334C43.8936 50.5909 44.4289 50.0556 44.4289 49.3954V46.122H47.7024C48.3626 46.1264 48.9014 45.5947 48.9058 44.9345C48.9058 44.9318 48.9058 44.9291 48.9058 44.9265V40.2169C48.9058 39.5566 48.3707 39.0214 47.7104 39.0214ZM47.3012 44.5173H43.6346C43.1915 44.5173 42.8323 44.8765 42.8323 45.3196V48.9862H38.933V45.3196C38.933 44.8765 38.5737 44.5173 38.1306 44.5173H34.464V40.626H38.1306C38.5737 40.626 38.933 40.2668 38.933 39.8237V36.1491H42.8242V39.8157C42.8242 40.2588 43.1835 40.618 43.6266 40.618H47.3012V44.5173Z" fill="#D6B082"/>
<path d="M54.8446 28.5439H48.2334V25.7198C48.275 24.431 47.264 23.3525 45.9753 23.3109C45.9096 23.3088 45.8439 23.3094 45.7783 23.3128H35.99C34.7022 23.2457 33.604 24.2352 33.5368 25.5228C33.5334 25.5884 33.5327 25.6541 33.5349 25.7198V28.5279H26.9237C24.3723 28.5279 21.3877 29.9801 21.3877 34.0639V51.5144C21.3877 55.5982 24.3723 57.0505 26.9237 57.0505H54.8446C57.396 57.0505 60.3806 55.5982 60.3806 51.5144V34.08C60.3806 29.9961 57.404 28.5439 54.8446 28.5439ZM35.1395 25.7198C35.1395 25.4871 35.1395 24.8613 35.998 24.8613H45.7783C46.6368 24.8613 46.6368 25.4791 46.6368 25.7198V28.5279H35.1395V25.7198ZM58.776 51.5144C58.776 55.0607 56.032 55.4458 54.8446 55.4458H26.9237C25.7443 55.4458 22.9923 55.0607 22.9923 51.5144V34.08C22.9923 30.5337 25.7363 30.1486 26.9237 30.1486H54.8446C56.024 30.1486 58.776 30.5337 58.776 34.08V51.5144Z" fill="#D6B082"/>
</g>
<defs>
<clipPath id="clip0_43_1848">
<rect width="38.9929" height="38.9929" fill="white" transform="translate(21.3867 20.6836)"/>
</clipPath>
</defs>
</svg>
