<svg width="112" height="112" viewBox="0 0 112 112" fill="none" xmlns="http://www.w3.org/2000/svg">
<circle cx="55.5203" cy="55.5203" r="55.5203" fill="#F8F2EB"/>
<circle cx="55.5203" cy="55.5203" r="54.8719" stroke="#C49D6C" stroke-opacity="0.67" stroke-width="1.29693"/>
<g clip-path="url(#clip0_51_825)">
<path d="M41.3312 70.4614C40.7894 70.4614 40.3478 70.896 40.3369 71.4359V71.4557C40.3369 72.0044 40.7824 72.4499 41.3312 72.4499C41.8799 72.4499 42.3254 72.0044 42.3254 71.4557C42.3254 71.4487 42.3254 71.4417 42.3254 71.4359C42.3145 70.896 41.8729 70.4614 41.3312 70.4614Z" fill="#4E69A5"/>
<path d="M73.0459 56.9562V37.6516C73.0459 34.4227 67.2572 32.6804 61.811 32.6804C56.3648 32.6804 50.5761 34.4227 50.5761 37.6516V46.6705C48.4144 45.3201 44.8029 44.6113 41.3296 44.6113C35.8831 44.6113 30.0947 46.3536 30.0947 49.5825V73.4443C30.0947 76.6732 35.8831 78.4155 41.3296 78.4155C45.4111 78.4155 49.6848 77.4371 51.5703 75.5877C53.4559 77.4371 57.7296 78.4155 61.811 78.4155C63.5754 78.4155 65.4508 78.2415 66.8944 77.9471C67.9197 78.2566 68.9839 78.4155 70.0632 78.4155C76.0935 78.4155 80.9998 73.5091 80.9998 67.4788C80.9998 62.5729 77.7002 58.2732 73.0459 56.9562ZM71.0574 43.6171C71.0574 44.0567 70.4228 44.814 68.634 45.5011C66.816 46.1994 64.3292 46.5998 61.811 46.5998C59.2928 46.5998 56.806 46.1994 54.988 45.5011C53.1992 44.814 52.5646 44.0567 52.5646 43.6171V40.5637C54.7262 41.914 58.3378 42.6228 61.811 42.6228C65.2842 42.6228 68.8957 41.914 71.0574 40.5637V43.6171ZM52.5646 46.5291C54.7262 47.8795 58.3378 48.5883 61.811 48.5883C65.2842 48.5883 68.8957 47.8795 71.0574 46.5291V49.5825C71.0574 50.0221 70.4228 50.7795 68.634 51.4665C66.816 52.1648 64.3292 52.5652 61.811 52.5652C59.2928 52.5652 56.806 52.1648 54.988 51.4665C53.1992 50.7795 52.5646 50.0221 52.5646 49.5825V46.5291ZM50.5761 55.5479C50.5761 55.9876 49.9415 56.7449 48.1526 57.4319C46.3346 58.1302 43.8479 58.5307 41.3296 58.5307C38.8114 58.5307 36.3247 58.1302 34.5067 57.4319C32.7178 56.7449 32.0832 55.9876 32.0832 55.5479V52.4945C34.2449 53.8449 37.8564 54.5537 41.3296 54.5537C44.8029 54.5537 48.4144 53.8449 50.5761 52.4945V55.5479ZM32.0832 58.46C34.2449 59.8104 37.8564 60.5191 41.3296 60.5191C44.8029 60.5191 48.4144 59.8104 50.5761 58.46V61.5134C50.5761 61.953 49.9415 62.7104 48.1526 63.3974C46.3346 64.0957 43.8479 64.4961 41.3296 64.4961C38.8114 64.4961 36.3247 64.0957 34.5067 63.3974C32.7178 62.7104 32.0832 61.953 32.0832 61.5134V58.46ZM52.5646 64.3442C54.2179 65.3657 56.6949 66.0302 59.1879 66.3176C59.1471 66.7021 59.1265 67.0901 59.1265 67.4788C59.1265 68.4486 59.2516 69.3982 59.4982 70.3171C57.7307 70.1221 56.0638 69.7353 54.7771 69.2098C53.2489 68.5861 52.5646 67.8909 52.5646 67.4788V64.3442ZM59.5794 64.3606C57.7043 64.1574 55.9252 63.7322 54.6031 63.1636C53.1949 62.5585 52.5646 61.8986 52.5646 61.5134V58.4064C53.0628 58.7136 53.6776 59.0126 54.4361 59.2927C56.4246 60.0275 59.0236 60.4663 61.6323 60.5145C60.6987 61.6419 59.9988 62.9473 59.5794 64.3606ZM63.8736 58.4642C63.2954 58.5074 62.7035 58.5307 62.1093 58.5307C59.5689 58.5307 57.0231 58.1283 55.1251 57.4273C53.3565 56.774 52.5646 56.0128 52.5646 55.5479V52.4945C54.7262 53.8449 58.3378 54.5537 61.811 54.5537C65.2842 54.5537 68.8957 53.8449 71.0574 52.4945V55.5479C71.0574 55.8513 70.8209 56.2004 70.3863 56.5472C70.2776 56.5441 70.1696 56.5422 70.0632 56.5422C67.8308 56.5422 65.6975 57.2071 63.8736 58.4642ZM54.988 35.7676C56.806 35.0693 59.2928 34.6689 61.811 34.6689C64.3292 34.6689 66.816 35.0693 68.634 35.7676C70.4228 36.4546 71.0574 37.212 71.0574 37.6516C71.0574 38.0913 70.4228 38.8486 68.634 39.5356C66.816 40.2339 64.3292 40.6343 61.811 40.6343C59.2928 40.6343 56.806 40.2339 54.988 39.5356C53.1992 38.8486 52.5646 38.0913 52.5646 37.6516C52.5646 37.212 53.1992 36.4546 54.988 35.7676ZM34.5067 47.6985C36.3247 47.0002 38.8114 46.5998 41.3296 46.5998C43.8479 46.5998 46.3346 47.0002 48.1526 47.6985C49.9415 48.3855 50.5761 49.1429 50.5761 49.5825C50.5761 50.0221 49.9415 50.7795 48.1526 51.4665C46.3346 52.1648 43.8479 52.5652 41.3296 52.5652C38.8114 52.5652 36.3247 52.1648 34.5067 51.4665C32.7178 50.7795 32.0832 50.0221 32.0832 49.5825C32.0832 49.1429 32.7178 48.3855 34.5067 47.6985ZM48.1526 75.3283C46.3346 76.0266 43.8479 76.427 41.3296 76.427C38.8114 76.427 36.3247 76.0266 34.5067 75.3283C32.7178 74.6412 32.0832 73.8839 32.0832 73.4443V70.354C33.8224 71.4325 36.2178 71.937 37.1962 72.1071C37.254 72.1172 37.3111 72.1222 37.3678 72.1222C37.842 72.1218 38.2623 71.7812 38.3461 71.2981C38.4401 70.7571 38.0782 70.2425 37.5372 70.1481C33.9641 69.5267 32.2001 68.2556 32.0898 67.558L32.0886 67.5507C32.0879 67.5398 32.0859 67.5254 32.0848 67.5149L32.084 67.506C32.0836 67.4971 32.0832 67.4878 32.0832 67.4788V64.4254C34.2449 65.7758 37.8564 66.4846 41.3296 66.4846C44.8029 66.4846 48.4144 65.7758 50.5761 64.4254V67.4788C50.5761 67.4878 50.5757 67.4971 50.5753 67.506L50.5745 67.5153C50.5745 67.5173 50.5741 67.5184 50.5741 67.5184C50.573 67.5293 50.5722 67.5344 50.5714 67.5452L50.5706 67.5514C50.4592 68.2556 48.6956 69.5267 45.1225 70.1481C44.5815 70.2425 44.2192 70.7571 44.3135 71.2981C44.3974 71.7812 44.8172 72.1222 45.2918 72.1222C45.3482 72.1222 45.4056 72.1172 45.4631 72.1071C46.4414 71.937 48.8365 71.4329 50.5765 70.3524V73.4443C50.5761 73.8839 49.9415 74.6412 48.1526 75.3283ZM54.988 75.3283C53.1992 74.6412 52.5646 73.8839 52.5646 73.4443V70.3132C54.4159 71.462 57.3272 72.1774 60.287 72.3856C61.0855 73.9756 62.2553 75.3353 63.6787 76.3598C63.0565 76.4033 62.4227 76.427 61.811 76.427C59.2928 76.427 56.806 76.0266 54.988 75.3283ZM70.0632 76.427C65.1366 76.427 61.115 72.4415 61.115 67.4788C61.115 62.5375 65.1176 58.5307 70.0632 58.5307C75.0767 58.5307 79.0113 62.6265 79.0113 67.4788C79.0113 72.4127 74.9971 76.427 70.0632 76.427Z" fill="#4E69A5"/>
<path d="M70.0638 66.4842C69.5154 66.4842 69.0695 66.0384 69.0695 65.49C69.0695 64.9416 69.5154 64.4958 70.0638 64.4958C70.329 64.4958 70.5788 64.5991 70.7663 64.7874C71.1547 65.1754 71.7843 65.1754 72.1726 64.7874C72.561 64.3991 72.561 63.7695 72.1726 63.3811C71.8526 63.0611 71.4724 62.823 71.058 62.6766V61.513C71.058 60.9639 70.6129 60.5188 70.0638 60.5188C69.5146 60.5188 69.0695 60.9639 69.0695 61.513V62.6782C67.9122 63.0887 67.0811 64.194 67.0811 65.49C67.0811 67.1348 68.419 68.4727 70.0638 68.4727C70.6122 68.4727 71.058 68.9186 71.058 69.467C71.058 70.0153 70.6122 70.4612 70.0638 70.4612C69.7985 70.4612 69.5488 70.3579 69.3612 70.1695C68.9728 69.7815 68.3433 69.7815 67.9549 70.1695C67.5665 70.5579 67.5665 71.1875 67.9549 71.5758C68.2749 71.8959 68.6551 72.1339 69.0695 72.2804V73.4439C69.0695 73.9931 69.5146 74.4382 70.0638 74.4382C70.6129 74.4382 71.058 73.9931 71.058 73.4439V72.2788C72.2154 71.8683 73.0465 70.763 73.0465 69.467C73.0465 67.8222 71.7085 66.4842 70.0638 66.4842Z" fill="#4E69A5"/>
</g>
<defs>
<clipPath id="clip0_51_825">
<rect width="50.9051" height="50.9051" fill="white" transform="translate(30.0947 30.0955)"/>
</clipPath>
</defs>
</svg>
