<svg width="80" height="80" viewBox="0 0 80 80" fill="none" xmlns="http://www.w3.org/2000/svg">
<circle cx="40.4637" cy="40.2357" r="39.4803" fill="#F8F2EB"/>
<circle cx="40.4637" cy="40.2357" r="39.0192" stroke="#C49D6C" stroke-opacity="0.67" stroke-width="0.922241"/>
<g clip-path="url(#clip0_43_1845)">
<path d="M24.4803 42.2317C24.0389 42.2317 23.6807 42.59 23.6807 43.0314C23.6807 43.4727 24.0389 43.831 24.4803 43.831C24.9217 43.831 25.28 43.4727 25.28 43.0314C25.28 42.59 24.9217 42.2317 24.4803 42.2317Z" fill="#4E69A5"/>
<path d="M57.2352 45.0047L49.6965 47.5964C49.73 47.4109 49.7487 47.2216 49.7487 47.0295C49.7487 45.2659 48.314 43.8309 46.5501 43.8309H41.3716C41.2342 43.8309 41.0986 43.7956 40.979 43.7281L36.7542 41.3519C35.9189 40.8812 34.9697 40.6322 34.0091 40.6322H28.3403C28.0104 39.7017 27.1214 39.0332 26.0791 39.0332H21.2811C20.8394 39.0332 20.4814 39.3912 20.4814 39.8329V54.2264C20.4814 54.6681 20.8394 55.0261 21.2811 55.0261H26.0791C27.0977 55.0261 27.9711 54.3861 28.3178 53.4871C29.223 53.5995 30.2704 53.8672 30.9286 54.262L35.1105 56.7713C36.6949 57.7221 38.5088 58.2247 40.3568 58.2247C41.8211 58.2247 43.2399 57.9174 44.574 57.3114L59.4992 50.7395C61.1523 50.0688 61.9685 48.0856 61.0236 46.3376C60.3286 45.0513 58.7008 44.479 57.2352 45.0047V45.0047ZM26.8787 52.6309C26.8769 53.0701 26.5186 53.4268 26.0791 53.4268H22.0808V40.6325H26.0791C26.5198 40.6325 26.8787 40.9911 26.8787 41.4322V52.6309ZM58.8917 49.2604C58.8833 49.2635 58.8748 49.2673 58.8664 49.2707C58.8664 49.2707 43.919 55.8523 43.9162 55.8536C42.7901 56.3658 41.5925 56.6254 40.3568 56.6254C38.7987 56.6254 37.2693 56.2019 35.9336 55.4L31.7513 52.8908C30.8561 52.3538 29.5741 52.0264 28.478 51.8952V42.2318H34.0091C34.6951 42.2318 35.3729 42.4093 35.9699 42.7457L40.1946 45.1219C40.5526 45.3237 40.9599 45.4305 41.3716 45.4305H46.5501C47.4319 45.4305 48.1494 46.1477 48.1494 47.0298C48.1494 47.9085 47.4316 48.6291 46.5501 48.6291H38.421C37.9793 48.6291 37.6214 48.9871 37.6214 49.4288C37.6214 49.8702 37.9793 50.2281 38.421 50.2281H46.5501C47.0745 50.2281 47.5909 50.0979 48.0491 49.8536C48.0491 49.8536 57.7684 46.5125 57.7722 46.5113C58.4887 46.2526 59.299 46.51 59.6167 47.0979C60.0931 47.9791 59.6992 48.9371 58.8917 49.2604V49.2604Z" fill="#4E69A5"/>
<path d="M43.7718 40.6691C43.9223 40.7993 44.1088 40.8643 44.2956 40.8643C44.4824 40.8643 44.6692 40.7993 44.8195 40.6691C51.3439 35.0146 55.3797 32.153 55.3797 27.7062C55.3797 24.1883 52.8892 21.2729 49.3903 21.2729C47.0926 21.2729 45.333 22.5974 44.1997 24.585C43.069 22.6018 41.3113 21.2729 39.0101 21.2729C36.3315 21.2729 34.0921 23.0088 33.305 25.6948C33.1807 26.1187 33.4237 26.5629 33.8476 26.6872C34.2714 26.8115 34.7156 26.5685 34.8396 26.1446C35.4222 24.1567 37.059 22.8723 39.0101 22.8723C41.2913 22.8723 42.8915 24.898 43.4291 26.784C43.525 27.1305 43.8405 27.3704 44.1997 27.3704C44.5593 27.3704 44.8744 27.1305 44.9703 26.784C44.9813 26.745 46.092 22.8723 49.3903 22.8723C51.893 22.8723 53.7803 24.9501 53.7803 27.7062C53.7803 31.2634 50.3031 33.8279 44.295 39.0082C40.6344 35.8646 37.7265 33.6518 36.0738 31.487C35.8058 31.1359 35.3041 31.0685 34.953 31.3365C34.6019 31.6045 34.5348 32.1062 34.8025 32.4576C36.6654 34.8975 39.8103 37.2352 43.7718 40.6691V40.6691Z" fill="#4E69A5"/>
<path d="M33.995 28.3174C33.5536 28.3174 33.1953 28.6757 33.1953 29.117C33.1953 29.5584 33.5536 29.9167 33.995 29.9167C34.4364 29.9167 34.7946 29.5584 34.7946 29.117C34.7946 28.6757 34.4364 28.3174 33.995 28.3174Z" fill="#4E69A5"/>
</g>
<defs>
<clipPath id="clip0_43_1845">
<rect width="40.9425" height="40.9425" fill="white" transform="translate(20.4814 19.2737)"/>
</clipPath>
</defs>
</svg>
