<svg width="135" height="135" viewBox="0 0 135 135" fill="none" xmlns="http://www.w3.org/2000/svg">
<path d="M111.734 67.2938C111.734 92.1163 91.6114 112.239 66.7889 112.239C41.9664 112.239 21.8438 92.1163 21.8438 67.2938C21.8438 42.4712 41.9664 22.3486 66.7889 22.3486C91.6114 22.3486 111.734 42.4712 111.734 67.2938Z" fill="#EEDECA"/>
<path d="M73.9014 66.1235C75.2347 66.8933 75.2347 68.8178 73.9014 69.5876L65.5751 74.3947C64.2418 75.1645 62.5751 74.2023 62.5751 72.6627L62.5751 63.0484C62.5751 61.5088 64.2418 60.5465 65.5751 61.3163L73.9014 66.1235Z" fill="#C49D6C"/>
<path d="M118.339 78.2529L117.161 78.0977L118.251 69.8289L119.429 69.9841L118.339 78.2529ZM119.398 70.2167L115.534 69.7076L115.723 68.2744L119.588 68.776L119.398 70.2167ZM118.173 79.5135L114.318 78.9904L114.507 77.5572L118.364 78.0654L118.173 79.5135ZM128.273 78.119L127.088 77.9628L127.718 73.1756L128.904 73.3318L128.273 78.119ZM128.109 79.3646L117.184 77.9252L117.374 76.4845L128.299 77.9239L128.109 79.3646ZM128.969 72.8365L128.778 74.2847L124.411 73.4803C123.755 73.3633 123.153 73.2203 122.605 73.0515C122.062 72.8833 121.57 72.6988 121.128 72.4981C120.686 72.2974 120.295 72.083 119.953 71.8548C119.617 71.6272 119.33 71.3934 119.091 71.1534C118.858 70.914 118.672 70.6706 118.531 70.4231C118.395 70.1812 118.307 69.9431 118.267 69.7088L118.354 69.0485L119.532 69.2037L119.47 69.6689C119.593 69.8174 119.776 69.9917 120.02 70.1917C120.262 70.3967 120.583 70.6095 120.981 70.8299C121.384 71.056 121.883 71.2718 122.476 71.4772C123.07 71.6877 123.778 71.8702 124.603 72.0246L128.969 72.8365Z" fill="#EEDECA"/>
<path d="M117.515 84.5875L121.736 90.253L121.232 91.5673L113.587 88.633L114.091 87.3188L119.666 89.4584L115.444 83.7929L115.943 82.4928L123.589 85.4271L123.09 86.7272L117.515 84.5875Z" fill="#EEDECA"/>
<path d="M112.968 96.9803L114.411 94.7134L115.364 95.302L114.186 97.1537C113.953 97.5198 113.795 97.8472 113.713 98.1359C113.628 98.4289 113.619 98.6831 113.685 98.8987C113.751 99.1142 113.891 99.2897 114.104 99.4251C114.27 99.5307 114.438 99.5867 114.607 99.5928C114.778 99.606 114.949 99.568 115.119 99.479C115.294 99.3927 115.466 99.2575 115.637 99.0732C115.81 98.896 115.984 98.669 116.16 98.3923L117.123 96.879L111.172 93.0924L111.924 91.9111L118.833 96.3071L117.118 99.0017C116.839 99.4402 116.55 99.8096 116.252 100.11C115.95 100.414 115.642 100.64 115.328 100.787C115.014 100.94 114.697 101.007 114.374 100.988C114.052 100.968 113.729 100.855 113.406 100.649C113.197 100.517 113.026 100.348 112.893 100.144C112.76 99.9395 112.674 99.7083 112.635 99.4502C112.596 99.1921 112.606 98.9119 112.667 98.6097C112.732 98.3101 112.852 97.9947 113.027 97.6635L112.968 96.9803ZM109.929 95.0464L111.643 92.3517L112.227 93.5486L110.887 95.6558C110.678 95.9836 110.545 96.2817 110.488 96.5503C110.435 96.8216 110.451 97.0592 110.537 97.2631C110.624 97.474 110.776 97.6485 110.993 97.7867C111.21 97.9248 111.43 97.9873 111.654 97.9741C111.879 97.9679 112.101 97.882 112.321 97.7163C112.544 97.5534 112.76 97.3081 112.968 96.9803L114.11 95.186L115.047 95.8L113.621 98.0413L112.991 98.2416C112.72 98.6015 112.422 98.8633 112.097 99.0271C111.771 99.1908 111.444 99.2635 111.114 99.2454C110.789 99.2299 110.486 99.1328 110.205 98.954C109.882 98.7482 109.636 98.505 109.468 98.2244C109.296 97.9482 109.201 97.6423 109.181 97.3067C109.166 96.9739 109.22 96.6166 109.343 96.2346C109.471 95.8554 109.666 95.4593 109.929 95.0464Z" fill="#EEDECA"/>
<path d="M106.773 102.842L108.449 109.706L107.472 110.719L101.578 105.035L102.555 104.022L106.853 108.167L105.176 101.303L106.143 100.301L112.038 105.985L111.071 106.987L106.773 102.842Z" fill="#EEDECA"/>
<path d="M100.79 115.973L96.0461 109.298L97.1935 108.483L101.938 115.157L100.79 115.973ZM98.5511 117.565L97.8933 116.639L103.476 112.671L104.134 113.596L98.5511 117.565Z" fill="#EEDECA"/>
<path d="M90.8567 114.951L89.8869 121.95L88.6051 122.532L85.2194 115.076L86.5011 114.494L88.9701 119.931L89.9398 112.932L91.2078 112.356L94.5936 119.813L93.3256 120.388L90.8567 114.951Z" fill="#EEDECA"/>
<path d="M78.5953 117.992C78.2716 118.071 77.9886 118.21 77.7461 118.409C77.5037 118.608 77.3222 118.844 77.2016 119.117C77.0821 119.395 77.0465 119.687 77.0945 119.992L75.8001 120.306C75.7104 119.829 75.7632 119.352 75.9587 118.874C76.1504 118.401 76.4513 117.983 76.8613 117.619C77.2726 117.259 77.7601 117.011 78.324 116.874C78.9222 116.729 79.47 116.708 79.9673 116.811C80.4598 116.914 80.8977 117.114 81.2812 117.411C81.6597 117.708 81.9802 118.077 82.2427 118.517C82.5015 118.963 82.6957 119.453 82.8254 119.988L82.9004 120.297C83.0301 120.831 83.0815 121.353 83.0547 121.863C83.0242 122.38 82.909 122.857 82.7089 123.295C82.5039 123.734 82.2064 124.112 81.8162 124.43C81.4212 124.749 80.9246 124.982 80.3264 125.127C79.7037 125.278 79.1285 125.282 78.6008 125.14C78.0743 125.003 77.6257 124.749 77.255 124.377C76.8807 124.011 76.6146 123.556 76.4568 123.013L77.7513 122.699C77.8555 123.021 78.0207 123.295 78.2467 123.521C78.4679 123.747 78.7348 123.906 79.0474 123.996C79.3564 124.093 79.6923 124.097 80.0551 124.009C80.4719 123.908 80.8022 123.739 81.0462 123.503C81.2864 123.274 81.456 122.999 81.5549 122.679C81.65 122.365 81.6934 122.03 81.6848 121.674C81.6726 121.324 81.6242 120.975 81.5397 120.627L81.4648 120.318C81.3803 119.97 81.2627 119.635 81.1119 119.313C80.9612 118.991 80.7716 118.713 80.5432 118.478C80.3098 118.244 80.0332 118.077 79.7133 117.978C79.3896 117.885 79.0169 117.89 78.5953 117.992Z" fill="#EEDECA"/>
<path d="M71.8177 123.463L69.3606 123.577C68.7003 123.607 68.138 123.517 67.6736 123.307C67.2095 123.101 66.8522 122.802 66.6017 122.409C66.3463 122.022 66.2069 121.574 66.1833 121.065C66.1658 120.687 66.2148 120.328 66.3304 119.99C66.4463 119.656 66.6296 119.36 66.8802 119.1C67.1258 118.842 67.4369 118.633 67.8134 118.474C68.1851 118.32 68.6179 118.232 69.1118 118.209L72.5895 118.048L72.9686 126.228L71.57 126.293L71.2442 119.262L69.1651 119.358C68.7619 119.377 68.4427 119.465 68.2075 119.622C67.9724 119.78 67.8073 119.977 67.7122 120.214C67.6171 120.45 67.5753 120.695 67.587 120.947C67.5985 121.194 67.6626 121.433 67.7794 121.665C67.8962 121.897 68.0792 122.086 68.3284 122.231C68.5778 122.381 68.9041 122.446 69.3073 122.428L71.7644 122.314L71.8177 123.463Z" fill="#EEDECA"/>
<path d="M53.479 120.107L56.0876 120.75L55.834 121.841L53.7031 121.316C53.2818 121.212 52.9213 121.167 52.6215 121.182C52.3168 121.195 52.0729 121.267 51.8898 121.399C51.7066 121.53 51.5848 121.718 51.5244 121.963C51.4773 122.154 51.4778 122.331 51.5261 122.494C51.5682 122.66 51.6586 122.81 51.7973 122.943C51.9348 123.08 52.1181 123.201 52.3473 123.304C52.5703 123.411 52.8411 123.504 53.1595 123.583L54.901 124.012L56.5903 117.164L57.9497 117.499L55.9885 125.45L52.8876 124.685C52.383 124.56 51.9408 124.405 51.5608 124.217C51.176 124.029 50.8638 123.809 50.6244 123.558C50.3789 123.31 50.2141 123.03 50.1299 122.718C50.0457 122.407 50.0495 122.065 50.1413 121.692C50.2006 121.452 50.3057 121.237 50.4569 121.045C50.608 120.854 50.7997 120.698 51.0318 120.579C51.2639 120.459 51.5329 120.38 51.8387 120.341C52.1433 120.307 52.4805 120.32 52.8503 120.38L53.479 120.107ZM54.3418 116.609L57.4427 117.374L56.4948 118.31L54.0699 117.711C53.6927 117.618 53.3677 117.588 53.0949 117.619C52.8209 117.655 52.6009 117.747 52.435 117.893C52.2629 118.043 52.146 118.242 52.0844 118.492C52.0228 118.742 52.0339 118.971 52.1178 119.179C52.1955 119.39 52.3478 119.573 52.5747 119.728C52.8004 119.887 53.1018 120.014 53.479 120.107L55.5438 120.616L55.2609 121.7L52.6817 121.064L52.2909 120.531C51.8633 120.389 51.5201 120.19 51.2611 119.934C51.0021 119.678 50.8286 119.391 50.7407 119.073C50.6516 118.76 50.647 118.442 50.7267 118.118C50.8186 117.746 50.9706 117.435 51.1827 117.186C51.39 116.936 51.6494 116.748 51.9611 116.622C52.2715 116.501 52.6274 116.438 53.0288 116.433C53.429 116.433 53.8666 116.492 54.3418 116.609Z" fill="#EEDECA"/>
<path d="M44.044 121.729L47.1493 114.152L48.4519 114.686L45.3466 122.263L44.044 121.729ZM44.621 124.313C44.5349 124.523 44.3991 124.675 44.2138 124.768C44.0237 124.859 43.8027 124.853 43.5506 124.75C43.3031 124.648 43.1437 124.499 43.0723 124.3C42.9962 124.1 43.0012 123.895 43.0873 123.685C43.1696 123.484 43.3081 123.339 43.5028 123.25C43.6909 123.163 43.9087 123.171 44.1561 123.272C44.4082 123.376 44.5709 123.524 44.6443 123.718C44.711 123.914 44.7033 124.113 44.621 124.313Z" fill="#EEDECA"/>
<path d="M38.3233 118.952L37.1257 118.227L38.8173 115.668C39.2458 115.019 39.669 114.491 40.0869 114.083C40.5048 113.676 40.9142 113.36 41.3149 113.137C41.713 112.918 42.1021 112.768 42.4824 112.685C42.8583 112.6 43.2206 112.557 43.5693 112.556L44.1649 112.917L43.5404 113.875L43.2905 113.732C43.0461 113.814 42.8035 113.903 42.5625 113.999C42.3189 114.099 42.0665 114.238 41.8053 114.416C41.5415 114.599 41.2644 114.847 40.9741 115.161C40.6768 115.476 40.3593 115.888 40.0214 116.397L38.3233 118.952ZM38.0255 118.772L33.8113 116.219L38.054 109.215L39.2515 109.941L35.6794 115.838L38.696 117.665L38.0255 118.772ZM43.8407 114.065L36.5582 109.654L38.405 106.605L39.6026 107.331L38.3517 109.396L43.2392 112.356L44.49 110.291L45.694 111.02L43.8407 114.065Z" fill="#EEDECA"/>
<path d="M32.0836 104.012C32.5025 104.399 32.8175 104.82 33.0286 105.276C33.2325 105.732 33.337 106.203 33.3421 106.688C33.3435 107.17 33.2449 107.649 33.0461 108.125C32.8473 108.6 32.5528 109.049 32.1627 109.472L31.9471 109.706C31.4953 110.195 31.0209 110.564 30.5238 110.812C30.0233 111.065 29.5256 111.209 29.0308 111.247C28.536 111.285 28.0677 111.227 27.626 111.073C27.1842 110.919 26.7946 110.687 26.4572 110.375C26.0272 109.978 25.7249 109.562 25.5503 109.126C25.3721 108.687 25.3061 108.241 25.3523 107.79C25.3951 107.342 25.5342 106.893 25.7698 106.445C26.002 106 26.3131 105.566 26.7033 105.143L27.1293 104.682L31.6228 108.83L30.8476 109.669L27.383 106.471L27.3111 106.549C27.0796 106.83 26.8956 107.141 26.7593 107.482C26.6193 107.819 26.5759 108.164 26.6292 108.515C26.6826 108.866 26.8853 109.205 27.2375 109.53C27.4711 109.745 27.7323 109.894 28.0212 109.975C28.3067 110.06 28.6089 110.071 28.9277 110.009C29.2466 109.946 29.5733 109.811 29.9078 109.605C30.2423 109.399 30.5773 109.114 30.9127 108.751L31.1283 108.517C31.3918 108.232 31.601 107.927 31.7559 107.603C31.9036 107.279 31.9887 106.953 32.0113 106.624C32.0301 106.291 31.9798 105.97 31.8603 105.66C31.7371 105.347 31.5346 105.061 31.2528 104.801C30.8895 104.465 30.5133 104.255 30.1243 104.171C29.7353 104.087 29.3316 104.081 28.9132 104.155L28.7473 103.085C29.0584 103.009 29.3962 102.974 29.7607 102.98C30.1252 102.987 30.5052 103.07 30.9007 103.229C31.2926 103.385 31.6869 103.646 32.0836 104.012Z" fill="#EEDECA"/>
<path d="M25.1784 102.902L25.0383 103.006C24.5635 103.356 24.0722 103.613 23.5644 103.775C23.0526 103.939 22.5506 104.003 22.0584 103.965C21.5622 103.93 21.0944 103.789 20.6553 103.543C20.212 103.299 19.821 102.948 19.4822 102.49C19.1405 102.027 18.9185 101.548 18.8161 101.053C18.7067 100.557 18.7083 100.066 18.8208 99.5817C18.9263 99.0961 19.133 98.6329 19.441 98.1921C19.7449 97.7543 20.1343 97.3601 20.6091 97.0094L20.7492 96.9059C21.224 96.5552 21.7153 96.2989 22.2231 96.1371C22.7308 95.9753 23.2343 95.9139 23.7336 95.9529C24.2258 95.9908 24.6935 96.1315 25.1367 96.3749C25.5729 96.6172 25.9619 96.9697 26.3037 97.4324C26.6454 97.8951 26.8695 98.3725 26.9759 98.8648C27.0782 99.36 27.0767 99.8504 26.9712 100.336C26.8587 100.821 26.6504 101.282 26.3465 101.72C26.0426 102.157 25.6532 102.552 25.1784 102.902ZM24.2065 101.88L24.3465 101.776C24.6752 101.533 24.9572 101.265 25.1925 100.972C25.4237 100.682 25.5939 100.378 25.7032 100.059C25.8095 99.7357 25.8407 99.4085 25.7967 99.0771C25.7486 98.7488 25.6092 98.4284 25.3783 98.1159C25.1505 97.8075 24.8882 97.584 24.5916 97.4456C24.2878 97.3062 23.9674 97.2418 23.6302 97.2524C23.2931 97.2631 22.952 97.3363 22.6069 97.472C22.2547 97.6067 21.9143 97.7954 21.5855 98.0382L21.4455 98.1417C21.1208 98.3815 20.8444 98.6484 20.6162 98.9424C20.381 99.2354 20.2102 99.5434 20.1039 99.8666C19.9905 100.189 19.9558 100.515 19.9998 100.847C20.0408 101.174 20.1768 101.494 20.4076 101.806C20.6354 102.115 20.9012 102.339 21.2049 102.478C21.5057 102.614 21.8281 102.677 22.1723 102.667C22.5095 102.656 22.8526 102.582 23.2018 102.443C23.5469 102.307 23.8818 102.119 24.2065 101.88Z" fill="#EEDECA"/>
<path d="M13.7239 85.1245L11.2961 84.2393L11.2727 86.6242L10.0833 86.5958L10.2595 84.167L7.77607 84.9515L7.45837 83.8459L10.0252 83.1871L8.59492 81.2514L9.6117 80.597L10.9153 82.6399L12.4748 80.6405L13.4105 81.3481L11.7022 83.2958L14.1245 84.0251L13.7239 85.1245Z" fill="#EEDECA"/>
<path d="M15.8479 57.3404L17.0287 57.473L16.0983 65.7613L14.9175 65.6287L15.8479 57.3404ZM14.9437 65.3956L18.8171 65.8304L18.6558 67.2669L14.7816 66.8396L14.9437 65.3956ZM15.9898 56.0769L19.8539 56.5259L19.6927 57.9624L15.8268 57.5285L15.9898 56.0769ZM5.91842 57.6652L7.10676 57.7986L6.56811 62.5971L5.37977 62.4637L5.91842 57.6652ZM6.05857 56.4167L17.0093 57.646L16.8472 59.09L5.89647 57.8608L6.05857 56.4167ZM5.32405 62.9601L5.48699 61.5085L9.86904 62.2289C10.5275 62.3333 11.1322 62.4646 11.6831 62.6229C12.229 62.7807 12.7247 62.9556 13.1702 63.1478C13.6157 63.34 14.0114 63.5469 14.3571 63.7685C14.6979 63.9895 14.9896 64.2177 15.2323 64.4531C15.4699 64.688 15.6613 64.9278 15.8065 65.1725C15.9472 65.4117 16.04 65.6481 16.0848 65.8816L16.0105 66.5435L14.8297 66.4109L14.8821 65.9446C14.7563 65.7985 14.5698 65.6278 14.3227 65.4325C14.0761 65.2322 13.7515 65.0256 13.3488 64.8129C12.9418 64.5946 12.4394 64.3884 11.8418 64.1944C11.2447 63.9954 10.5325 63.8266 9.70525 63.688L5.32405 62.9601Z" fill="#EEDECA"/>
<path d="M16.5553 50.9631L12.228 45.3778L12.7077 44.0543L20.4066 46.8446L19.927 48.1681L14.3129 46.1334L18.6401 51.7187L18.1656 53.0279L10.4667 50.2377L10.9412 48.9284L16.5553 50.9631Z" fill="#EEDECA"/>
<path d="M20.8559 38.5048L19.4554 40.7977L18.4916 40.2268L19.6357 38.3537C19.8618 37.9833 20.0133 37.6531 20.09 37.363C20.1693 37.0685 20.1739 36.8141 20.1038 36.5999C20.0336 36.3856 19.8909 36.2127 19.6756 36.0812C19.5077 35.9786 19.3389 35.9258 19.1694 35.9227C18.9981 35.9127 18.8282 35.9538 18.6596 36.0459C18.4867 36.1354 18.3164 36.2738 18.1488 36.4611C17.9795 36.6415 17.8094 36.8717 17.6384 37.1516L16.7035 38.6823L22.7232 42.359L21.9934 43.5539L15.0048 39.2855L16.6696 36.5598C16.9405 36.1163 17.2225 35.7417 17.5156 35.4359C17.8114 35.1259 18.1153 34.8946 18.4271 34.7422C18.7373 34.5828 19.0537 34.51 19.3764 34.5238C19.699 34.5376 20.024 34.6444 20.3512 34.8443C20.5622 34.9732 20.7362 35.1385 20.873 35.3404C21.0099 35.5422 21.1002 35.7718 21.1441 36.0291C21.1879 36.2865 21.1822 36.5668 21.1271 36.8701C21.0676 37.1708 20.9535 37.4883 20.7847 37.8227L20.8559 38.5048ZM23.9303 40.3825L22.2656 43.1082L21.6597 41.9222L22.9615 39.7908C23.164 39.4592 23.2914 39.1587 23.3437 38.8891C23.3917 38.6169 23.3711 38.3796 23.2818 38.1773C23.1909 37.968 23.0356 37.7963 22.816 37.6622C22.5964 37.5281 22.3749 37.4697 22.1515 37.4869C21.9265 37.4973 21.7059 37.5873 21.49 37.7569C21.2698 37.9239 21.0584 38.1732 20.8559 38.5048L19.7474 40.3197L18.7993 39.723L20.184 37.4559L20.81 37.244C21.0742 36.8792 21.3675 36.612 21.6899 36.4423C22.0123 36.2726 22.3382 36.1939 22.6678 36.206C22.9931 36.2155 23.2979 36.307 23.5821 36.4806C23.9093 36.6805 24.1597 36.9191 24.3332 37.1965C24.5093 37.4696 24.6103 37.7737 24.6362 38.1088C24.6578 38.4413 24.6104 38.7996 24.494 39.1837C24.3733 39.5652 24.1854 39.9648 23.9303 40.3825Z" fill="#EEDECA"/>
<path d="M26.7771 32.7046L24.9509 25.8792L25.9058 24.8449L31.923 30.3993L30.9682 31.4337L26.5804 27.3834L28.4065 34.2088L27.462 35.232L21.4447 29.6776L22.3893 28.6543L26.7771 32.7046Z" fill="#EEDECA"/>
<path d="M32.572 19.3509L37.4374 25.9378L36.305 26.7741L31.4397 20.1872L32.572 19.3509ZM34.7818 17.7186L35.4563 18.6317L29.9469 22.7012L29.2724 21.7881L34.7818 17.7186Z" fill="#EEDECA"/>
<path d="M42.3308 20.2524L43.1442 13.2339L44.4127 12.6234L47.9639 20.0023L46.6955 20.6128L44.1059 15.2321L43.2925 22.2506L42.0377 22.8545L38.4864 15.4756L39.7412 14.8717L42.3308 20.2524Z" fill="#EEDECA"/>
<path d="M54.6158 16.8838C54.9379 16.7991 55.2182 16.655 55.4569 16.4514C55.6955 16.2478 55.8725 16.0082 55.9879 15.7327C56.102 15.4523 56.1321 15.1601 56.0783 14.856L57.3666 14.5173C57.4653 14.9922 57.4215 15.4706 57.2352 15.9526C57.0525 16.4285 56.7596 16.8524 56.3565 17.2244C55.9522 17.5915 55.4695 17.8488 54.9083 17.9963C54.3129 18.1528 53.7657 18.1845 53.2665 18.0914C52.7721 17.997 52.3304 17.8053 51.9415 17.5163C51.5573 17.226 51.2299 16.8634 50.9591 16.4286C50.6918 15.9875 50.4883 15.5011 50.3485 14.9692L50.2677 14.6618C50.1279 14.1299 50.0665 13.6086 50.0836 13.0981C50.1043 12.5814 50.2105 12.1022 50.4022 11.6606C50.5988 11.2176 50.8891 10.8335 51.2731 10.5082C51.662 10.1817 52.1541 9.94014 52.7495 9.78364C53.3692 9.62074 53.9442 9.60523 54.4745 9.73712C55.0035 9.86413 55.4568 10.1102 55.8345 10.4752C56.2158 10.8341 56.4904 11.2836 56.6585 11.8237L55.3702 12.1623C55.2599 11.8418 55.0896 11.5709 54.8593 11.3498C54.6338 11.1273 54.364 10.9739 54.0497 10.8896C53.7389 10.7991 53.403 10.8013 53.0419 10.8962C52.6271 11.0053 52.3 11.1799 52.0606 11.4203C51.8248 11.6544 51.6605 11.9324 51.5677 12.2541C51.4785 12.5697 51.4416 12.9055 51.4569 13.2614C51.4758 13.6112 51.5308 13.9593 51.6218 14.3058L51.7027 14.6132C51.7937 14.9597 51.9177 15.2923 52.0745 15.6111C52.2313 15.9298 52.4262 16.2046 52.659 16.4356C52.8968 16.6652 53.1765 16.8265 53.4983 16.9193C53.8237 17.0059 54.1962 16.9941 54.6158 16.8838Z" fill="#EEDECA"/>
<path d="M61.4555 11.2326L63.9099 11.0714C64.5694 11.0281 65.1334 11.1073 65.6017 11.3092C66.0697 11.506 66.4328 11.7982 66.6908 12.1857C66.9536 12.5679 67.1016 13.0133 67.135 13.5218C67.1598 13.8994 67.1177 14.2586 67.0086 14.5995C66.8992 14.9354 66.7217 15.2353 66.4761 15.4992C66.2355 15.7627 65.9286 15.9776 65.5552 16.1437C65.1865 16.3044 64.7555 16.401 64.2621 16.4334L60.7881 16.6615L60.2514 8.49019L61.6485 8.39842L62.1098 15.4219L64.1867 15.2855C64.5894 15.259 64.9069 15.1648 65.139 15.003C65.371 14.8411 65.5323 14.6409 65.6228 14.4023C65.7134 14.1638 65.7504 13.9186 65.7338 13.6669C65.7176 13.4202 65.6489 13.182 65.5276 12.9523C65.4063 12.7226 65.2197 12.5377 64.9678 12.3975C64.7156 12.2522 64.3881 12.1929 63.9853 12.2193L61.5309 12.3805L61.4555 11.2326Z" fill="#EEDECA"/>
<path d="M79.6161 14.1712L76.9958 13.5775L77.2285 12.4817L79.3691 12.9667C79.7923 13.0626 80.1536 13.1005 80.4531 13.0804C80.7574 13.0614 80.9999 12.9845 81.1805 12.8495C81.3611 12.7145 81.4793 12.524 81.5351 12.278C81.5786 12.086 81.5746 11.9093 81.5233 11.7476C81.478 11.5821 81.3848 11.4343 81.2436 11.304C81.1035 11.1688 80.9179 11.0517 80.6868 10.9528C80.4618 10.85 80.1893 10.7624 79.8695 10.69L78.1201 10.2936L76.5614 17.1729L75.1958 16.8635L77.0054 8.877L80.1203 9.58278C80.6272 9.69762 81.0723 9.84504 81.4558 10.025C81.8441 10.2062 82.1604 10.4201 82.4045 10.6668C82.6547 10.9098 82.8249 11.1863 82.915 11.4964C83.0051 11.8066 83.0078 12.1486 82.923 12.5226C82.8684 12.7637 82.7674 12.9814 82.6199 13.1756C82.4724 13.3698 82.2838 13.5288 82.0539 13.6527C81.8241 13.7765 81.5567 13.8608 81.2517 13.9055C80.9478 13.9452 80.6104 13.9386 80.2396 13.8857L79.6161 14.1712ZM78.82 17.6847L75.7052 16.9789L76.6351 16.0256L79.0709 16.5775C79.4498 16.6634 79.7753 16.688 80.0475 16.6513C80.3208 16.6098 80.539 16.5144 80.7021 16.3651C80.8713 16.212 80.9844 16.01 81.0412 15.759C81.0981 15.5081 81.0826 15.2795 80.9948 15.0734C80.913 14.8634 80.7573 14.6833 80.5275 14.5329C80.2988 14.3776 79.995 14.2571 79.6161 14.1712L77.542 13.7013L77.8043 12.6122L80.3951 13.1992L80.796 13.7246C81.2261 13.8583 81.5731 14.0507 81.837 14.3019C82.1008 14.5531 82.2797 14.8368 82.3736 15.153C82.4686 15.4642 82.4794 15.7822 82.4058 16.107C82.321 16.481 82.175 16.7945 81.9676 17.0476C81.7651 17.3018 81.5093 17.4947 81.2001 17.6264C80.892 17.7532 80.5374 17.8229 80.1362 17.8355C79.7361 17.8431 79.2974 17.7928 78.82 17.6847Z" fill="#EEDECA"/>
<path d="M89.1789 12.3846L86.216 20.0188L84.9036 19.5095L87.8665 11.8753L89.1789 12.3846ZM88.5537 9.81202C88.6358 9.60035 88.7687 9.44625 88.9523 9.34973C89.1406 9.25503 89.3617 9.25697 89.6157 9.35555C89.865 9.4523 90.0272 9.59915 90.1023 9.79608C90.1822 9.99484 90.181 10.2 90.0988 10.4117C90.0203 10.614 89.8846 10.7615 89.6916 10.8544C89.5051 10.9444 89.2872 10.941 89.0379 10.8443C88.7839 10.7457 88.6185 10.6003 88.5415 10.4081C88.4711 10.213 88.4752 10.0143 88.5537 9.81202Z" fill="#EEDECA"/>
<path d="M94.9513 15.0247L96.162 15.728L94.5177 18.3176C94.1013 18.9743 93.6879 19.5103 93.2775 19.9254C92.8672 20.3406 92.4637 20.6635 92.0672 20.8941C91.6732 21.1204 91.2869 21.2782 90.9082 21.3675C90.5339 21.4593 90.1725 21.509 89.8238 21.5166L89.2217 21.1669L89.8285 20.1977L90.081 20.3356C90.3238 20.249 90.5647 20.1556 90.8039 20.0553C91.0456 19.9506 91.2954 19.8069 91.5533 19.6241C91.8137 19.4369 92.0862 19.1838 92.3707 18.8648C92.6621 18.5439 92.972 18.1258 93.3005 17.6106L94.9513 15.0247ZM95.2523 15.1996L99.5128 17.6742L95.3997 24.7553L94.189 24.0521L97.652 18.0901L94.6023 16.3187L95.2523 15.1996ZM89.5247 20.0125L96.8872 24.289L95.0967 27.3714L93.886 26.6682L95.0987 24.5805L90.1576 21.7105L88.945 23.7981L87.7277 23.0911L89.5247 20.0125Z" fill="#EEDECA"/>
<path d="M101.575 29.8983C101.149 29.5192 100.827 29.1038 100.607 28.652C100.395 28.1997 100.282 27.731 100.268 27.2458C100.258 26.7639 100.348 26.2834 100.538 25.8041C100.728 25.3249 101.014 24.8704 101.397 24.4408L101.608 24.2033C102.051 23.7058 102.518 23.3283 103.011 23.0709C103.507 22.8098 104.002 22.6559 104.496 22.6093C104.99 22.5626 105.459 22.6122 105.904 22.7578C106.348 22.9035 106.742 23.1289 107.085 23.4342C107.522 23.8233 107.832 24.2341 108.014 24.6667C108.2 25.1025 108.275 25.5467 108.237 25.9993C108.202 26.448 108.071 26.8988 107.844 27.3516C107.62 27.8006 107.316 28.24 106.934 28.6697L106.516 29.1389L101.948 25.0734L102.708 24.2197L106.23 27.3544L106.301 27.2752C106.527 26.9904 106.705 26.6763 106.835 26.3328C106.969 25.9926 107.006 25.6474 106.947 25.297C106.887 24.9467 106.678 24.6122 106.32 24.2935C106.083 24.0822 105.819 23.9385 105.528 23.8625C105.241 23.7827 104.939 23.7771 104.621 23.8456C104.304 23.9142 103.98 24.0545 103.649 24.2668C103.318 24.479 102.988 24.7698 102.66 25.1392L102.448 25.3766C102.19 25.6669 101.986 25.9753 101.837 26.3021C101.696 26.6284 101.616 26.9564 101.6 27.2862C101.587 27.6193 101.643 27.9394 101.768 28.2467C101.897 28.5572 102.105 28.84 102.391 29.0949C102.761 29.4236 103.141 29.6267 103.531 29.704C103.922 29.7813 104.325 29.7793 104.742 29.6978L104.928 30.7645C104.618 30.8469 104.281 30.888 103.916 30.8877C103.552 30.8875 103.17 30.8115 102.772 30.6595C102.377 30.511 101.978 30.2572 101.575 29.8983Z" fill="#EEDECA"/>
<path d="M108.359 30.6983L108.496 30.5918C108.964 30.2308 109.449 29.9638 109.953 29.791C110.461 29.615 110.962 29.5406 111.455 29.5677C111.952 29.5918 112.422 29.7222 112.867 29.9589C113.315 30.1926 113.714 30.5349 114.063 30.986C114.414 31.4411 114.647 31.915 114.76 32.4079C114.88 32.9017 114.889 33.392 114.787 33.879C114.693 34.3668 114.496 34.8344 114.198 35.2818C113.904 35.7261 113.523 36.1288 113.056 36.4898L112.918 36.5963C112.451 36.9574 111.966 37.2243 111.461 37.3972C110.957 37.57 110.455 37.6425 109.955 37.6144C109.462 37.5873 108.992 37.4569 108.543 37.2233C108.102 36.9905 107.705 36.6466 107.353 36.1915C107.002 35.7365 106.767 35.264 106.65 34.7742C106.537 34.2814 106.528 33.791 106.623 33.3032C106.724 32.8163 106.923 32.3507 107.217 31.9063C107.511 31.462 107.892 31.0594 108.359 30.6983ZM109.353 31.6996L109.215 31.806C108.892 32.056 108.616 32.33 108.387 32.628C108.162 32.923 107.999 33.2312 107.896 33.5526C107.797 33.878 107.773 34.2058 107.824 34.5361C107.88 34.8633 108.026 35.1806 108.264 35.4879C108.498 35.7913 108.765 36.009 109.065 36.1408C109.372 36.2736 109.693 36.331 110.03 36.313C110.367 36.2949 110.706 36.2143 111.048 36.071C111.398 35.9287 111.734 35.7325 112.057 35.4826L112.195 35.3761C112.514 35.1292 112.785 34.8563 113.006 34.5574C113.235 34.2594 113.399 33.9476 113.498 33.6222C113.605 33.2977 113.632 32.9704 113.581 32.6401C113.533 32.3138 113.39 31.997 113.152 31.6896C112.918 31.3862 112.647 31.1681 112.341 31.0353C112.037 30.9065 111.713 30.8507 111.369 30.8678C111.032 30.8859 110.691 30.9681 110.345 31.1144C110.003 31.2577 109.672 31.4527 109.353 31.6996Z" fill="#EEDECA"/>
<path d="M120.315 48.4431L122.759 49.2823L122.738 46.8974L123.927 46.9032L123.797 49.3349L126.265 48.5036L126.604 49.6031L124.05 50.3103L125.516 52.2185L124.512 52.892L123.17 50.8741L121.649 52.9027L120.7 52.2129L122.371 50.2333L119.935 49.55L120.315 48.4431Z" fill="#EEDECA"/>
</svg>
